# xmcd
#
# Track frame offsets:
#	150
#	7625
#	15192
#	25400
#	34987
#	42565
#	49375
#	65180
#	82567
#	94020
#	110360
#	122850
#
# Disc length: 1932 seconds
#
# Revision: 1
# Processed by: cddbd v1.5.1PL0 Copyright (c) Steve Scherf et al.
# Submitted via: CDex 1.50Beta5
#
DISCID=8e078a0c
DTITLE=中川イサト - 蜃気楼の王国
DYEAR=1900
DGENRE=
TTITLE0=Scarecrow
TTITLE1=Horsetail Blues
TTITLE2=Little Kota
TTITLE3=爪 紅
TTITLE4=Pompelmous
TTITLE5=第三帝国の黄昏
TTITLE6=Galland’s Dream
TTITLE7=Theremin
TTITLE8=Polestar
TTITLE9=逃げ水
TTITLE10=Stonehenge
TTITLE11=海 市
EXTD=
EXTT0=
EXTT1=
EXTT2=
EXTT3=
EXTT4=
EXTT5=
EXTT6=
EXTT7=
EXTT8=
EXTT9=
EXTT10=
EXTT11=
PLAYORDER=
